<svg xmlns="http://www.w3.org/2000/svg" version="1.1" xmlns:xlink="http://www.w3.org/1999/xlink" width="1500" height="1500" viewBox="0 0 1500 1500"><rect width="1500" height="1500" x="0" y="0" id="background" stroke="transparent" fill="#0a83e8"></rect><svg xml:space="preserve" width="1000" height="1000" data-version="2" data-id="lg_HLuHdoqt7wyE1lvfoS" viewBox="0 0 635 634" x="250" y="250"><rect width="100%" height="100%" fill="transparent"></rect><circle r="8.31" fill="#fff" transform="translate(314.42 313.4)scale(6.1709)"></circle><path fill="#fff" d="M360.77 49.451c0 23.999-19.45 162.937-43.449 162.937-23.992 0-43.45-138.944-43.45-162.937a43.455 43.455 0 0 1 86.9 0m-86.9 528.92c0-23.998 19.458-162.93 43.45-162.93 23.999 0 43.45 138.938 43.45 162.93a43.455 43.455 0 0 1-86.9 0m261.32-420.151c-17.223 16.704-130.465 99.542-147.17 82.326-16.71-17.217 69.41-127.96 86.627-144.677a43.45 43.45 0 0 1 61.438.913 43.443 43.443 0 0 1-.895 61.438M97.156 468.67c17.217-16.71 130.453-99.53 147.17-82.332 16.704 17.23-69.417 127.96-86.634 144.677a43.425 43.425 0 0 1-61.431-.9 43.462 43.462 0 0 1 .895-61.445m366.49 68.707C447.415 519.692 367.7 404.248 385.367 388c17.673-16.223 126.022 72.89 142.251 90.57a43.443 43.443 0 0 1-2.567 61.382 43.468 43.468 0 0 1-61.407-2.573M158.52 95.252c16.76 17.161 99.9 130.169 82.733 146.923-17.16 16.766-128.15-69.04-144.91-86.226a43.45 43.45 0 1 1 62.177-60.697M49.442 268.58c24.005 0 162.93 19.463 162.93 43.455 0 24-138.931 43.456-162.93 43.456a43.455 43.455 0 0 1 0-86.911m529.939 88.262c-23.999 0-162.924-19.438-162.924-43.437s138.931-43.449 162.924-43.449a43.443 43.443 0 1 1 0 86.886"></path></svg></svg>